<?xml version="1.0" encoding="utf-8"?>
<!-- Generator: Adobe Illustrator 17.0.0, SVG Export Plug-In . SVG Version: 6.00 Build 0)  -->
<!DOCTYPE svg PUBLIC "-//W3C//DTD SVG 1.1//EN" "http://www.w3.org/Graphics/SVG/1.1/DTD/svg11.dtd">
<svg version="1.1" id="Layer_1" xmlns="http://www.w3.org/2000/svg" xmlns:xlink="http://www.w3.org/1999/xlink" x="0px" y="0px"
	 width="19px" height="25px" viewBox="0 0 19 25" enable-background="new 0 0 19 25" xml:space="preserve">
<path fill-rule="evenodd" clip-rule="evenodd" fill="#2a2a2a" d="M18.931,23.974c-1.146-2.417-3.21-4.317-5.711-5.274v-1.529
	c1.23-0.069,3.548-0.386,4.908-1.799c0.172-0.18,0.24-0.439,0.177-0.682c-0.063-0.243-0.25-0.434-0.49-0.503
	c-0.021-0.005-1.813-0.629-1.454-4.354c0.156-1.587,0.13-3.015-0.073-4.242c-0.235-1.407-0.703-2.513-1.386-3.285
	c-0.74-0.831-1.704-1.254-2.866-1.254c-0.047,0-0.094,0-0.135,0C11.46,0.661,10.49,0,9.005,0C8.313,0,7.588,0.143,6.848,0.434
	L6.817,0.444C6.234,0.666,5.15,1.084,4.233,2.322C3.165,3.761,2.654,5.893,2.717,8.654c0.063,2.767-0.386,4.121-0.771,4.772
	c-0.318,0.534-0.62,0.64-0.698,0.661c-0.266-0.021-0.479,0.116-0.615,0.349c-0.141,0.238-0.089,0.54,0.068,0.772
	c0.063,0.095,0.427,0.593,1.308,1.074c1.006,0.55,2.261,0.862,3.746,0.926v1.455c-2.47,0.952-4.523,2.867-5.684,5.316
	c-0.104,0.222-0.089,0.481,0.036,0.688C0.236,24.873,0.46,25,0.7,25h17.601c0.24,0,0.469-0.127,0.594-0.333
	C19.02,24.455,19.035,24.196,18.931,23.974z M1.898,23.566c1.125-1.756,2.814-3.084,4.767-3.724c0.292-0.095,0.49-0.37,0.49-0.677
	v-2.661c0-0.191-0.073-0.376-0.208-0.508c-0.135-0.132-0.313-0.212-0.5-0.206c-2.027,0.021-3.251-0.45-3.918-0.852
	c0.047-0.048,0.099-0.095,0.151-0.148c1.026-1.084,1.511-3.158,1.443-6.168c-0.135-5.56,2.194-6.459,3.184-6.84l0.031-0.011
	C7.922,1.55,8.479,1.434,8.995,1.434c1.344,0,2.032,0.751,2.089,0.82c0.146,0.185,0.37,0.275,0.604,0.254
	c0.115-0.011,0.229-0.016,0.339-0.016c0.755,0,1.355,0.254,1.824,0.783c0.99,1.111,1.396,3.454,1.105,6.427
	c-0.292,2.999,0.63,4.502,1.428,5.232c-1.073,0.603-2.6,0.83-3.751,0.83c-0.063,0-0.099,0-0.104,0
	c-0.188-0.005-0.375,0.069-0.511,0.201c-0.135,0.132-0.214,0.317-0.214,0.513v2.735c0,0.312,0.198,0.582,0.49,0.677
	c1.98,0.651,3.673,1.962,4.794,3.687H1.898V23.566z"/>
</svg>
