<svg version="1.1" id="Layer_1" xmlns="http://www.w3.org/2000/svg" xmlns:xlink="http://www.w3.org/1999/xlink" x="0px" y="0px"
	 width="46px" height="58px" viewBox="0 0 46 58" enable-background="new 0 0 46 58" xml:space="preserve">
<path fill-rule="evenodd" clip-rule="evenodd" fill="#d7d0c0" d="M14.44,43.082l-9.349,3.594c-3.059,1.19-5.08,4.151-5.092,7.458v2.901
	C0,57.567,0.429,58,0.959,58h44.083C45.571,58,46,57.567,46,57.034v-2.901c-0.012-3.306-2.033-6.268-5.092-7.458l-9.349-3.594
	c-1.112-0.433-1.847-1.508-1.851-2.71v-1.933c-0.017-0.815,0.323-1.596,0.929-2.135c2.437-2.043,3.848-5.073,3.852-8.27
	c1.02,0.005,2-0.4,2.723-1.126c0.724-0.726,1.13-1.712,1.13-2.741v-2.9c0.002-1.111-0.47-2.167-1.297-2.9
	c1.006-4.428-0.152-9.345-4.303-11.003C31.145,2.234,25.658,0,20.316,0C11.315,0,6.884,9.231,9.228,18.144
	c-0.99,0.726-1.574,1.888-1.571,3.122v2.9c0,1.029,0.407,2.016,1.13,2.741c0.723,0.726,1.703,1.131,2.723,1.126
	c0.003,3.196,1.415,6.226,3.852,8.27c0.607,0.539,0.946,1.32,0.929,2.135v1.933C16.287,41.573,15.552,42.649,14.44,43.082
	L14.44,43.082z M16.599,34.826c-2.157-1.815-3.337-4.553-3.182-7.383c0-0.097,0-0.206,0.006-0.298
	c0.022-0.27-0.069-0.536-0.252-0.735c-0.182-0.199-0.438-0.311-0.707-0.31h-0.975c-1.059,0-1.917-0.866-1.917-1.934v-2.9
	c-0.003-0.514,0.199-1.006,0.558-1.37c0.36-0.363,0.849-0.566,1.358-0.563c0.529,0,0.958-0.433,0.958-0.966
	c0-0.534-0.429-0.967-0.958-0.967c-0.151,0.006-0.302,0.022-0.452,0.047C9.13,9.792,12.634,1.933,20.316,1.933
	c4.627,0,9.679,1.933,10.701,6.408c0.15,0.639,0.724,0.707,1.024,0.822c3.138,1.246,3.833,4.93,3.208,8.328
	c-0.242-0.064-0.49-0.097-0.74-0.096c-0.529,0-0.958,0.432-0.958,0.966s0.429,0.967,0.958,0.967c1.059,0,1.917,0.866,1.917,1.933
	v2.9c0,1.068-0.858,1.933-1.917,1.933h-0.977c-0.269,0-0.525,0.112-0.707,0.31c-0.182,0.199-0.274,0.465-0.251,0.734
	c0.007,0.092,0.006,0.2,0.006,0.299c0.155,2.83-1.025,5.567-3.182,7.382c-1.038,0.907-1.626,2.231-1.606,3.616v1.933
	c0.008,2.003,1.232,3.796,3.085,4.517l9.349,3.593c2.317,0.902,3.849,3.146,3.858,5.651v1.933H1.917v-1.933
	c0.009-2.506,1.541-4.749,3.858-5.651l9.349-3.593c1.853-0.721,3.077-2.514,3.085-4.517v-1.933
	C18.226,37.054,17.638,35.732,16.599,34.826L16.599,34.826z"/>
</svg>
