<?xml version="1.0" encoding="utf-8"?>
<!-- Generator: Adobe Illustrator 17.0.0, SVG Export Plug-In . SVG Version: 6.00 Build 0)  -->
<!DOCTYPE svg PUBLIC "-//W3C//DTD SVG 1.1//EN" "http://www.w3.org/Graphics/SVG/1.1/DTD/svg11.dtd">
<svg version="1.1" id="Layer_1" xmlns="http://www.w3.org/2000/svg" xmlns:xlink="http://www.w3.org/1999/xlink" x="0px" y="0px"
	 width="20px" height="20px" viewBox="0 0 20 20" enable-background="new 0 0 20 20" xml:space="preserve">
<path fill-rule="evenodd" clip-rule="evenodd" fill="#2a2a2a" d="M19.399,19.998H0.599c-0.33,0-0.598-0.276-0.598-0.617V2.524
	c0-0.341,0.267-0.618,0.599-0.618h3.186L3.782,2.858H0.954v4.761h18.092V2.858h-2.855l0.005-0.953h3.203
	c0.331,0,0.599,0.276,0.599,0.618v16.857C19.998,19.721,19.73,19.998,19.399,19.998z M3.81,8.571H0.954v2.856H3.81V8.571z
	 M3.81,12.38H0.954v2.857H3.81V12.38z M3.81,16.189H0.954v2.5c0,0.197,0.183,0.356,0.409,0.356H3.81V16.189z M7.619,8.571H4.763
	v2.856h2.857V8.571z M7.619,12.38H4.763v2.857h2.857V12.38z M7.619,16.189H4.763v2.857h2.857V16.189z M11.428,8.571H8.571v2.856
	h2.857V8.571z M11.428,16.189H8.571v2.857h2.857V16.189z M15.237,8.571H12.38v2.856h2.857V8.571z M15.237,12.38H12.38v2.857h2.857
	V12.38z M15.237,16.189H12.38v2.857h2.857V16.189z M19.046,8.571h-2.857v2.856h2.857V8.571z M19.046,12.38h-2.857v2.857h2.857V12.38
	z M19.046,16.189h-2.857v2.857h2.447c0.226,0,0.41-0.16,0.41-0.356V16.189z M14.285,3.81c-0.525,0-0.952-0.426-0.952-0.951V0.953
	c0-0.526,0.427-0.951,0.952-0.951c0.524,0,0.952,0.425,0.952,0.951v1.906C15.237,3.385,14.811,3.81,14.285,3.81z M7.631,2.858
	l0.005-0.953h4.673l-0.005,0.953H7.631z M5.953,3.81H5.477c-0.395,0-0.714-0.321-0.714-0.717V0.718c0-0.398,0.32-0.716,0.714-0.716
	h0.476c0.395,0,0.714,0.321,0.714,0.716v2.376C6.667,3.492,6.347,3.81,5.953,3.81z"/>
</svg>
