<svg height="31" id="facebook" data-name="facebook" xmlns="http://www.w3.org/2000/svg" viewBox="0 0 15.4503 28.9414"><defs><style>.cls-1{fill:#efebe1;fill-rule:evenodd;}</style></defs><title>facebook</title><path class="cls-1" d="M12.3714,5.6048c-1.7208,0-2.0356.6791-2.0356,2.0172v2.7838h4.3577a.58.58,0,0,1,.4124.1732.5954.5954,0,0,1,.1706.4174l-.0018,4.758a.5862.5862,0,0,1-.5826.59H10.3355V28.3508a.5864.5864,0,0,1-.5827.59H4.8914a.5862.5862,0,0,1-.5826-.59V16.3445H.5828A.5864.5864,0,0,1,0,15.7544v-4.758a.5865.5865,0,0,1,.5827-.5906H4.3091V7.122C4.3091,2.7951,6.9993,0,11.1626,0l3.706.006a.5866.5866,0,0,1,.5818.59v4.418a.5864.5864,0,0,1-.5824.59Z" transform="translate(-0.0001 0.0005)"/></svg>