<svg width="205" height="64" id="figure" data-name="figure" xmlns="http://www.w3.org/2000/svg" viewBox="0 0 194.5008 60.4266"><defs><style>.cls-1{fill:#7d7d7d;}</style></defs><title>figure</title><path class="cls-1" d="M86.1486,22.1074c.6909.7761,2.4156,1.5447,2.9365,2.13,19.922-6.58,30.9735-19.8728,51.8743-22.7725,14.4522-1.9957,27.1206,1.87,36.8463,9.6766,18.9433,15.1558,24.1842,37.1521,4.3731,47.2155-5.2346,2.6509-13.467,1.5514-15.4246-.3879-1.27-1.2838-.118-1.2838.7435-.9661,2.88,1.29,10.2522,1.424,16.2423-2.5812,15.5983-10.6422,4.8323-32.2507-6.6841-39.9878-20.9567-14.062-47.21-5.55-58.67.3185A180.5006,180.5006,0,0,1,91.1536,25.9156c12.6126,9.0912,31.1537,21.736,46.3493,10.8962,6.7957-4.768,7.5448-12.4475.6933-15.8679-8.4614-4.0619-14.9723,3.8722-14.9164,5.8745-.0559.5783-2.2982.9022-1.7223-.7761,2.0692-7.3547,11.3985-9.9358,17.903-6.6431,8.4614,4.1895,10.1964,15.8046,1.9018,21.7358-16.5836,11.869-39.8975-4.45-52.6211-14.5775-1.3847.5149-6.6847,1.678-9.1592.3243-2.2456-1.3541-3.3944-3.42-1.8986-5.2257C79.9879,18.948,83.2123,20.4927,86.1486,22.1074Zm.517,2.6451c-6.1017-4.5141-6.6777-1.03-5.99-.2607C81.0225,25.4007,84.7081,25.0128,86.6656,24.7525Z" transform="translate(-0.2453 -0.9453)"/><path class="cls-1" d="M118.72,21.6561c1.5,1.8059.3406,3.8716-1.9017,5.2257-2.4778,1.3537-7.7746.1906-9.1555-.3243C94.9355,36.6848,71.6185,53.004,55.0387,41.135c-8.2921-5.9312-6.5635-17.5463,1.8986-21.7358,6.5077-3.2927,15.8337-.7116,17.9055,6.6431.5734,1.6783-1.6689,1.3544-1.7248.7761.0559-2.0023-6.4487-9.9364-14.9107-5.8745-6.8547,3.42-6.1049,11.1.6875,15.8679,15.202,10.84,33.7394-1.805,46.3456-10.8962A180.7466,180.7466,0,0,1,78.0088,14.7524C66.5513,8.8843,40.298.3719,19.3412,14.4339,7.8254,22.171-2.9412,43.78,12.6635,54.4217c5.99,4.0052,13.3593,3.8716,16.2366,2.5812.8608-.3177,2.0128-.3177.7435.9661-1.9519,1.9393-10.1875,3.0388-15.4285.3879-19.8015-10.0634-14.5638-32.06,4.377-47.2155C28.3235,3.3346,40.9887-.5309,55.4383,1.4648c20.9073,2.9,31.9555,16.1922,51.884,22.7725.5075-.5852,2.2424-1.3538,2.9357-2.13C113.1887,20.4927,116.4162,18.948,118.72,21.6561Zm-2.9979,2.8357c.694-.77.1174-4.2534-5.9907.2607C111.6891,25.0128,115.3753,25.4007,115.7222,24.4918Z" transform="translate(-0.2453 -0.9453)"/><path class="cls-1" d="M84.7391,23.5506c.6909.7758,2.4162,1.5511,2.9364,2.13,19.9189-6.58,30.9767-19.8668,51.8713-22.7656C154,.9123,166.6673,4.7839,176.3994,12.59c18.9433,15.1563,24.1841,37.1527,4.3737,47.21-5.2409,2.6511-13.4739,1.5513-15.4316-.3813-1.2635-1.291-.111-1.291.75-.9662,2.8806,1.2838,10.2523,1.4171,16.2366-2.5811C197.932,45.229,187.166,23.6143,175.65,15.8774c-20.9567-14.0623-47.2095-5.55-58.67.3243A180.9589,180.9589,0,0,1,89.7448,27.3588c12.6094,9.097,31.15,21.7361,46.3518,10.9029,6.7893-4.7744,7.5391-12.4476.6876-15.8679-8.4621-4.0688-14.9729,3.8647-14.9108,5.8678-.0621.578-2.3046.9023-1.7286-.7692,2.0756-7.3621,11.4049-9.9432,17.9094-6.65,8.462,4.1955,10.19,15.8042,1.9017,21.7423-16.5835,11.8624-39.9006-4.4567-52.6242-14.5841-1.3848.5213-6.6841,1.6784-9.1592.3243-2.2456-1.3544-3.3944-3.414-1.8986-5.2191C78.5785,20.3912,81.8028,21.9359,84.7391,23.5506Zm.5171,2.6448c-6.1018-4.5138-6.6777-1.03-5.99-.2543C79.6131,26.8439,83.2985,26.456,85.2562,26.1954Z" transform="translate(-0.2453 -0.9453)"/><path class="cls-1" d="M117.3081,23.1059c1.4989,1.8051.347,3.8647-1.9018,5.2191-2.4783,1.3541-7.7681.197-9.15-.3243C93.5267,38.1281,70.21,54.4472,53.6292,42.5848c-8.2914-5.9381-6.5635-17.5468,1.8986-21.7423,6.5077-3.2933,15.8338-.7122,17.9061,6.65.5729,1.6715-1.67,1.3472-1.7253.7692.0557-2.0031-6.4488-9.9366-14.9108-5.8678-6.8548,3.42-6.1049,11.0935.6876,15.8679,15.2019,10.8332,33.74-1.8059,46.3492-10.9029A181.07,181.07,0,0,1,76.5993,16.2017c-11.4574-5.8742-37.71-14.3866-58.6669-.3243C6.4159,23.6143-4.35,45.229,11.2541,55.8716c5.9907,3.9982,13.3591,3.8649,16.2365,2.5811.8608-.3248,2.0134-.3248.7435.9662-1.9513,1.9326-10.1876,3.0324-15.4278.3813C-6.9953,49.7431-1.7575,27.7467,17.1826,12.59,26.9146,4.7839,39.58.9123,54.0288,2.9149,74.936,5.8137,85.9844,19.1,105.91,25.6805c.5145-.5788,2.2424-1.3541,2.9363-2.13C111.7823,21.9359,115.0035,20.3912,117.3081,23.1059Zm-2.9922,2.8352c.6876-.7755.1116-4.2595-5.99.2543C110.2834,26.456,113.9689,26.8439,114.3159,25.9411Z" transform="translate(-0.2453 -0.9453)"/></svg>