<svg height="205" id="figure2" data-name="figure2" xmlns="http://www.w3.org/2000/svg" viewBox="0 0 88.3318 209.1596"><defs><style>.cls-1{fill:#515151;}</style></defs><title>figure2</title><path class="cls-1" d="M21.6792,117.1753c.7535-.7451,1.5066-2.6047,2.0685-3.1643C17.3468,92.5347,4.4117,80.6189,1.5906,58.087c-1.948-15.5777,1.8184-29.2323,9.4137-39.72,14.7535-20.4206,36.1616-26.07,45.9541-4.7173,2.5765,5.6451,1.5112,14.5244-.3742,16.6331-1.257,1.3641-1.257.1238-.9407-.8085,1.2524-3.1024,1.3821-11.0454-2.5135-17.5035-10.3591-16.8183-31.3883-5.2111-38.9211,7.2C.5253,41.7642,8.8066,70.0667,14.5211,82.4165a207.4688,207.4688,0,0,1,10.8619,29.36C34.2354,98.1841,46.5374,78.2,35.9917,61.8107c-4.6445-7.3237-12.1149-8.1282-15.4445-.7426-3.9535,9.1222,3.7664,16.138,5.714,16.0761.5665.0619.8782,2.4788-.7531,1.8595C18.35,76.7717,15.84,66.7152,19.0406,59.702c4.0827-9.1239,15.3819-10.9834,21.1584-2.047,11.5489,17.8742-4.3324,43.01-14.1875,56.7261.4994,1.49,1.6317,7.2.3122,9.871-1.3195,2.42-3.325,3.6577-5.0859,2.0453C18.6038,123.8164,20.11,120.3387,21.6792,117.1753Zm2.5719-.5556c-4.3949,6.5751-1.0028,7.1967-.25,6.4515C24.88,122.7011,24.5053,118.7263,24.2511,116.62Z" transform="translate(-0.0683 -0.1046)"/><path class="cls-1" d="M21.2378,82.0685c1.7609-1.617,3.7664-.3744,5.0859,2.047,1.32,2.6683.1872,8.3794-.3122,9.869,9.8551,13.7163,25.7364,38.8523,14.1875,56.7259-5.7765,8.9372-17.0757,7.0774-21.1584-2.0445-3.2005-7.0158-.691-17.0717,6.4675-19.3019,1.6313-.621,1.32,1.7981.7531,1.86-1.9476-.062-9.6675,6.9493-5.714,16.0757,3.33,7.3857,10.8,6.5749,15.4445-.7494,10.5457-16.384-1.7563-36.3686-10.6087-49.9612a207.3789,207.3789,0,0,1-10.8619,29.36c-5.7145,12.3521-13.9958,40.6524-.3122,63.2457,7.5328,12.414,28.562,24.017,38.9211,7.2007,3.8956-6.4556,3.7659-14.4012,2.5135-17.5078-.3163-.9255-.3163-2.168.9407-.8022,1.8854,2.1064,2.9507,10.9863.3742,16.6314-9.7925,21.35-31.2006,15.7013-45.9541-4.7156C3.409,179.5089-.3574,165.8567,1.5906,150.2786c2.8211-22.5319,15.7562-34.4476,22.1571-55.9219-.5619-.5571-1.315-2.4215-2.0685-3.166C20.11,88.0267,18.6038,84.55,21.2378,82.0685Zm2.7636,3.2256c-.7531-.7445-4.1452-.123.25,6.4539C24.5053,89.6393,24.88,85.6671,24.0014,85.2941Z" transform="translate(-0.0683 -0.1046)"/><path class="cls-1" d="M49.43,96.1551c4.8006-1.1923,9.1864-2.69,13.0373-5.8457A33.3248,33.3248,0,0,0,71.663,77.8426a.375.375,0,0,0-.5125-.5066c-3.94,1.8506-6.4228,6.5854-9.9574,9.23-3.3163,2.4785-6.86,3.373-10.5369,4.6448.2761-.4564.5526-.9277.8689-1.4125a27.6545,27.6545,0,0,1,5.34-5.7111c3.9535-3.3584,9.9933-6.6433,15.15-7.3549.361-.0465.2053-.584-.147-.5379-5.95.82-10.6484,1.62-15.712,5.0812-3.445,2.3555-9.3689,7.3352-9.2662,11.8564a.87.87,0,0,0,.08.3283A2.0143,2.0143,0,0,0,49.43,96.1551Z" transform="translate(-0.0683 -0.1046)"/><path class="cls-1" d="M49.43,112.2131c4.8006,1.19,9.1864,2.6881,13.0373,5.8435a33.34,33.34,0,0,1,9.1955,12.4668.3749.3749,0,0,1-.5125.5066c-3.94-1.8509-6.4228-6.5838-9.9574-9.2277-3.3163-2.4808-6.86-3.3759-10.5369-4.6445.2761.4538.5526.9249.8689,1.41a27.5534,27.5534,0,0,0,5.34,5.711c3.9535,3.3578,9.9933,6.6457,15.15,7.35.361.0527.2053.5909-.147.5418-5.95-.8193-10.6484-1.6169-15.712-5.0808-3.445-2.353-9.3689-7.3329-9.2662-11.8542a.8842.8842,0,0,1,.08-.3305A2.0129,2.0129,0,0,1,49.43,112.2131Z" transform="translate(-0.0683 -0.1046)"/><path class="cls-1" d="M54.476,100.9734a13.6208,13.6208,0,0,1,2.5094-2.7563,7.3968,7.3968,0,0,1,3.8732-1.69.3749.3749,0,0,1,.2674.6344C59.21,98.7988,56.486,99.31,54.77,101.2,54.6275,101.3524,54.3422,101.1414,54.476,100.9734Z" transform="translate(-0.0683 -0.1046)"/><path class="cls-1" d="M54.476,107.392a13.62,13.62,0,0,0,2.5094,2.7586,7.3975,7.3975,0,0,0,3.8732,1.6881.3752.3752,0,0,0,.2674-.6351c-1.9165-1.6347-4.64-2.1459-6.3562-4.0318C54.6275,107.013,54.3422,107.2246,54.476,107.392Z" transform="translate(-0.0683 -0.1046)"/><path class="cls-1" d="M63.876,113.1474a.7152.7152,0,0,1,.1917-1.4013,28.8836,28.8836,0,0,0,13.7731-2.3624,17.9622,17.9622,0,0,0,5.7408-3.904c.4058-.4452.7267-.8859,1.0389-1.2956-.3122-.41-.6331-.8506-1.0389-1.2979a18.1051,18.1051,0,0,0-5.7408-3.9045,28.884,28.884,0,0,0-13.7731-2.3595.7155.7155,0,0,1-.1917-1.4017,25.1382,25.1382,0,0,1,15.1816.9077c2.4291.9323,7.3055,3.4484,8.8564,6.4495a.8731.8731,0,0,1,.3656.5,5.5584,5.5584,0,0,1,0,2.2145.8815.8815,0,0,1-.3656.5c-1.5509,2.9969-6.4273,5.5129-8.8564,6.4424A25.1171,25.1171,0,0,1,63.876,113.1474Z" transform="translate(-0.0683 -0.1046)"/><path class="cls-1" d="M53.6064,107.33a.2519.2519,0,0,0-.0666-.4932,10.1166,10.1166,0,0,1-4.8362-.8282,6.27,6.27,0,0,1-2.01-1.3687,5.7313,5.7313,0,0,1-.3657-.4559,4.7378,4.7378,0,0,1,.3657-.4541,6.3479,6.3479,0,0,1,2.01-1.3727,10.2272,10.2272,0,0,1,4.8362-.8283.2508.2508,0,0,0,.0666-.4914,8.82,8.82,0,0,0-5.326.3217A6.5684,6.5684,0,0,0,45.169,103.62a.3208.3208,0,0,0-.1291.1757,2.1252,2.1252,0,0,0,0,.7758.3212.3212,0,0,0,.1291.1763,6.5737,6.5737,0,0,0,3.1114,2.265A8.8371,8.8371,0,0,0,53.6064,107.33Z" transform="translate(-0.0683 -0.1046)"/><path class="cls-1" d="M20.6632,118.18c.7531-.7492,1.5062-2.6087,2.0726-3.1683C16.3307,93.5373,3.4,81.6215.5741,59.09c-1.9434-15.5777,1.823-29.232,9.4183-39.72C24.7459-1.0514,46.154-6.701,55.9465,14.6517c2.572,5.6453,1.5067,14.525-.3742,16.6336-1.2616,1.3636-1.2616.123-.9448-.8087,1.2524-3.1024,1.3816-11.0457-2.5094-17.5036C41.7591-3.8455,20.7252,7.762,13.1929,20.1738-.4911,42.767,7.7947,71.07,13.5092,83.4194a208.8082,208.8082,0,0,1,10.8624,29.3619C33.2189,99.1864,45.5255,79.2018,34.98,62.8133,30.3307,55.49,22.86,54.6851,19.5353,62.0707c-3.9535,9.1219,3.7664,16.1374,5.71,16.0758.5706.0616.8782,2.479-.749,1.86-7.1581-2.2323-9.6721-12.2888-6.4675-19.302,4.0786-9.1242,15.3819-10.9837,21.1543-2.047,11.553,17.8736-4.3282,43.01-14.1875,56.7284.5035,1.49,1.6313,7.2007.3163,9.8667-1.319,2.4235-3.33,3.6617-5.0854,2.049C17.5873,124.8207,19.094,121.3439,20.6632,118.18Zm2.5715-.5594c-4.39,6.5792-1.0028,7.2005-.2493,6.4559C23.8677,123.7017,23.4889,119.7312,23.2347,117.62Z" transform="translate(-0.0683 -0.1046)"/><path class="cls-1" d="M20.2264,83.0714c1.7558-1.6173,3.7664-.3747,5.0854,2.047,1.315,2.6683.1872,8.3793-.3163,9.8687,9.8593,13.718,25.74,38.8542,14.1875,56.7282-5.7724,8.9366-17.0757,7.0768-21.1543-2.0491-3.2046-7.0158-.6906-17.0677,6.4675-19.3019,1.6272-.6213,1.32,1.8024.749,1.86-1.9435-.0571-9.6634,6.9544-5.71,16.076,3.3251,7.3862,10.7954,6.5792,15.4445-.7445,10.5457-16.3846-1.7609-36.3691-10.6082-49.9641A208.57,208.57,0,0,1,13.5092,126.954c-5.7145,12.3475-14,40.6524-.3163,63.2453,7.5323,12.41,28.5662,24.0171,38.9252,7.1965,3.891-6.4559,3.7618-14.4015,2.5094-17.5038-.3168-.93-.3168-2.1683.9448-.8019,1.8809,2.1063,2.9462,10.9817.3742,16.6311-9.7925,21.3507-31.2006,15.7013-45.9541-4.72-7.5953-10.488-11.3617-24.14-9.4183-39.7177C3.4,128.747,16.3307,116.8358,22.7358,95.3593c-.5664-.5571-1.32-2.4215-2.0726-3.1663C19.094,89.0292,17.5873,85.5522,20.2264,83.0714Zm2.759,3.2253c-.7535-.7445-4.1411-.123.2493,6.4542C23.4889,90.6422,23.8677,86.6691,22.9854,86.2967Z" transform="translate(-0.0683 -0.1046)"/><path class="cls-1" d="M48.4183,97.1571c4.8006-1.1918,9.1819-2.69,13.0331-5.8455a33.3359,33.3359,0,0,0,9.2-12.4667.3777.3777,0,0,0-.5171-.5066c-3.94,1.8509-6.4228,6.5857-9.9574,9.23C56.86,90.0473,53.3171,90.9418,49.64,92.2127c.2761-.4555.5527-.9271.8736-1.4122a27.6358,27.6358,0,0,1,5.3356-5.7111c3.9535-3.3578,9.9975-6.6428,15.15-7.3549.3611-.0459.2095-.584-.1469-.5376-5.95.82-10.6443,1.62-15.7074,5.0812-3.45,2.3549-9.374,7.3351-9.2713,11.8564a.96.96,0,0,0,.08.3282A2.017,2.017,0,0,0,48.4183,97.1571Z" transform="translate(-0.0683 -0.1046)"/><path class="cls-1" d="M48.4183,113.2131c4.8006,1.1947,9.1819,2.6884,13.0331,5.8481a33.3414,33.3414,0,0,1,9.2,12.4625.379.379,0,0,1-.5171.5109c-3.94-1.8507-6.4228-6.5881-9.9574-9.2323-3.3163-2.4811-6.8595-3.371-10.5369-4.6448.2761.4587.5527.93.8736,1.4146a27.74,27.74,0,0,0,5.3356,5.7116c3.9535,3.3578,9.9975,6.6408,15.15,7.3506.3611.0482.2095.5855-.1469.5373-5.95-.8194-10.6443-1.6172-15.7074-5.0809-3.45-2.3535-9.374-7.3328-9.2713-11.85a.9444.9444,0,0,1,.08-.33A2.0187,2.0187,0,0,1,48.4183,113.2131Z" transform="translate(-0.0683 -0.1046)"/><path class="cls-1" d="M53.46,101.9762A13.7785,13.7785,0,0,1,55.9689,99.22,7.4128,7.4128,0,0,1,59.8426,97.53a.3737.3737,0,0,1,.267.6342c-1.9119,1.6374-4.64,2.1485-6.3557,4.039C53.6156,102.3553,53.33,102.1437,53.46,101.9762Z" transform="translate(-0.0683 -0.1046)"/><path class="cls-1" d="M53.46,108.3971a13.6336,13.6336,0,0,0,2.5094,2.7538,7.3717,7.3717,0,0,0,3.8737,1.6878.3733.3733,0,0,0,.267-.6345c-1.9119-1.6347-4.64-2.1462-6.3557-4.0318C53.6156,108.0178,53.33,108.2294,53.46,108.3971Z" transform="translate(-0.0683 -0.1046)"/><path class="cls-1" d="M62.8646,114.1477a.7152.7152,0,0,1,.1917-1.4013,28.9591,28.9591,0,0,0,13.7726-2.3576,18.1149,18.1149,0,0,0,5.7409-3.9045c.4057-.45.722-.8876,1.0342-1.2959-.3122-.4117-.6285-.8523-1.0342-1.3a18.1058,18.1058,0,0,0-5.7409-3.9042,28.9011,28.9011,0,0,0-13.7726-2.36.7152.7152,0,0,1-.1917-1.4013,25.1254,25.1254,0,0,1,15.1811.9077c2.425.9317,7.3009,3.4481,8.8523,6.4492a.9062.9062,0,0,1,.37.5,5.5326,5.5326,0,0,1,0,2.2142.8865.8865,0,0,1-.37.4983c-1.5514,3.0009-6.4273,5.5175-8.8523,6.447A25.1171,25.1171,0,0,1,62.8646,114.1477Z" transform="translate(-0.0683 -0.1046)"/><path class="cls-1" d="M52.59,108.3352a.2522.2522,0,0,0-.067-.4937,10.1551,10.1551,0,0,1-4.8317-.8285,6.3592,6.3592,0,0,1-2.0147-1.3705c-.1424-.1585-.2538-.3127-.3652-.4541.1114-.1451.2228-.3.3652-.4555a6.359,6.359,0,0,1,2.0147-1.3727,10.2236,10.2236,0,0,1,4.8317-.8286.25.25,0,0,0,.067-.4891,8.82,8.82,0,0,0-5.3264.3194,6.5277,6.5277,0,0,0-3.1069,2.2626.2978.2978,0,0,0-.1291.1763,1.2669,1.2669,0,0,0-.04.3876,1.2891,1.2891,0,0,0,.04.3882.3163.3163,0,0,0,.1291.176,6.57,6.57,0,0,0,3.1069,2.2607A8.8383,8.8383,0,0,0,52.59,108.3352Z" transform="translate(-0.0683 -0.1046)"/></svg>