<svg width="31" height="31" id="guitar" data-name="guitar" xmlns="http://www.w3.org/2000/svg" viewBox="0 0 30.988 30.9388"><defs><style>.cls-1{fill:#2a2a2a;}</style></defs><title>guitar</title><path class="cls-1" d="M11.6205,16.8156a2.5783,2.5783,0,1,0,2.5823,2.5783A2.5834,2.5834,0,0,0,11.6205,16.8156Zm0,3.8673a1.289,1.289,0,1,1,1.2912-1.289A1.2909,1.2909,0,0,1,11.6205,20.6829Zm-5.9994.8334,3.8735,3.8673-.9129.9114L4.7082,22.4277ZM30.5594,3.9724a1.6213,1.6213,0,0,0,.4286-1.2667A2.36,2.36,0,0,0,28.4057.0572a1.657,1.657,0,0,0-1.3286.4636.6818.6818,0,0,0-.15-.2767.6765.6765,0,0,0-.9166,0,.6745.6745,0,0,0-.1873.4579.6627.6627,0,0,0,.1873.4576.6838.6838,0,0,0,.3924.174,4.7528,4.7528,0,0,1-.6055.53.6727.6727,0,0,0-.1614-.3306.6833.6833,0,0,0-.9167,0,.6624.6624,0,0,0-.1873.4576.6743.6743,0,0,0,.1873.4576.6917.6917,0,0,0,.21.1353,6.4012,6.4012,0,0,0-.437.5023.6835.6835,0,0,0-.1479-.2638A.6449.6449,0,0,0,23.241,3.28a.6623.6623,0,0,0,.1872.4573.6777.6777,0,0,0,.4583.1869.6964.6964,0,0,0,.0872-.0172,2.2894,2.2894,0,0,0-.2362.7529,1.3377,1.3377,0,0,0,.0244.4117L15.95,12.8712a6.6615,6.6615,0,0,0-3.6843-1.2119c-3.3655,0-3.8787,2.2282-4.155,3.4252a3.7714,3.7714,0,0,1-.175.6307,5.1637,5.1637,0,0,1-1.8928.5453C3.6372,16.7,0,17.3649,0,21.9592c0,4.2225,4.8218,9.0368,9.051,9.0368,4.6018,0,5.268-3.6308,5.7083-6.0336a5.3148,5.3148,0,0,1,.5313-1.877,3.1228,3.1228,0,0,1,.6456-.1878c1.2-.2758,3.4313-.7881,3.4313-4.1482a6.6392,6.6392,0,0,0-1.2137-3.6784l7.809-7.7953a1.3463,1.3463,0,0,0,.2647.0275,1.4858,1.4858,0,0,0,.1516-.0077,2.2764,2.2764,0,0,0,.7528-.2351.6581.6581,0,0,0-.0174.0871A.6456.6456,0,1,0,28.2184,6.69a.5965.5965,0,0,0-.2672-.1442,6.4321,6.4321,0,0,0,.5048-.4384.7.7,0,0,0,.1369.2087.6476.6476,0,0,0,.9167-.9151.63.63,0,0,0-.3338-.156,4.481,4.481,0,0,1,.5359-.6.66.66,0,0,0,.1723.3824.6478.6478,0,0,0,.9168-.9154A.6158.6158,0,0,0,30.5594,3.9724ZM15.6469,21.641a2.4951,2.4951,0,0,0-1.2549.52,4.9171,4.9171,0,0,0-.9026,2.5691c-.428,2.3326-.9128,4.9765-4.4384,4.9765-3.5532,0-7.76-4.2-7.76-7.7475,0-3.5206,2.6482-4.0046,4.9852-4.4312a4.9306,4.9306,0,0,0,2.5727-.9013A2.4863,2.4863,0,0,0,9.37,15.3744c.2745-1.193.5585-2.4261,2.8962-2.4261a6.2879,6.2879,0,0,1,5.81,5.8011C18.0763,21.0834,16.8413,21.3669,15.6469,21.641ZM17.3417,14.06c-.1221-.13-.248-.2552-.3784-.3776l7.5688-7.5568.3784.3776ZM26.28,6.0472Zm3.16-2.8237a5.3513,5.3513,0,0,0-1.57,1.6325c-.2227.3337-1.2473,1.1743-1.6256,1.1551L25.0241,4.7935A3.68,3.68,0,0,1,26.181,3.171a5.8394,5.8394,0,0,0,1.6423-1.5332c.2176-.2913.2176-.2913.5824-.2913.9412,0,1.2912.3687,1.2912,1.3592C29.6969,3.046,29.6969,3.046,29.4392,3.2235Z" transform="translate(0 -0.0572)"/></svg>