<svg height="31" id="instagram" data-name="instagram" xmlns="http://www.w3.org/2000/svg" viewBox="0 0 29.2424 29.7303"><defs><style>.cls-1{fill:#efebe1;fill-rule:evenodd;}</style></defs><title>instagram</title><path class="cls-1" d="M22.1193,30.9844H6.9267a7.0921,7.0921,0,0,1-7.025-7.1419V8.3963a7.0922,7.0922,0,0,1,7.025-7.1422H22.1193a7.0923,7.0923,0,0,1,7.0248,7.1422V23.8425A7.0921,7.0921,0,0,1,22.1193,30.9844ZM26.4738,6.3611a2.6768,2.6768,0,1,0-2.6763,2.7213A2.7018,2.7018,0,0,0,26.4738,6.3611Zm-11.9508.55a9.21,9.21,0,0,0,0,18.4175,9.21,9.21,0,0,0,0-18.4175Zm0,16.4433a7.2355,7.2355,0,1,1,7.1157-7.2346A7.1843,7.1843,0,0,1,14.523,23.354Z" transform="translate(0.0983 -1.2541)"/></svg>