<?xml version="1.0" encoding="utf-8"?>
<!-- Generator: Adobe Illustrator 17.0.0, SVG Export Plug-In . SVG Version: 6.00 Build 0)  -->
<!DOCTYPE svg PUBLIC "-//W3C//DTD SVG 1.1//EN" "http://www.w3.org/Graphics/SVG/1.1/DTD/svg11.dtd">
<svg version="1.1" id="Layer_1" xmlns="http://www.w3.org/2000/svg" xmlns:xlink="http://www.w3.org/1999/xlink" x="0px" y="0px"
	 width="22px" height="21px" viewBox="0 0 22 21" enable-background="new 0 0 22 21" xml:space="preserve">
<path fill-rule="evenodd" clip-rule="evenodd" fill="none" d="M19.856,21H2.811c-0.816,0-1.478-0.652-1.478-1.457V2.133
	c0-0.804,0.662-1.456,1.478-1.456h17.045c0.816,0,1.477,0.652,1.477,1.456v17.41C21.333,20.347,20.673,21,19.856,21z M4.375,17.689
	h3.022V8.513H4.375V17.689z M5.905,4.089c-1.033,0-1.71,0.685-1.71,1.585c0,0.882,0.657,1.586,1.67,1.586h0.02
	c1.053,0,1.708-0.704,1.708-1.586C7.574,4.774,6.939,4.089,5.905,4.089z M18.29,12.428c0-2.82-1.491-4.13-3.479-4.13
	c-1.604,0-2.321,0.891-2.722,1.517V8.513H9.068c0.039,0.861,0,9.176,0,9.176h3.02v-5.125c0-0.274,0.02-0.547,0.101-0.743
	c0.218-0.548,0.714-1.116,1.55-1.116c1.093,0,1.53,0.842,1.53,2.075v4.909h3.021V12.428z M12.089,9.814v0.029h-0.02
	C12.074,9.835,12.082,9.824,12.089,9.814z"/>
</svg>
