<svg width="16" height="31" id="key" data-name="key" xmlns="http://www.w3.org/2000/svg" viewBox="0 0 15.0192 28.9902"><defs><style>.cls-1{fill:#2a2a2a;fill-rule:evenodd;}</style></defs><title>key</title><path class="cls-1" d="M14.9923,14.8711a6.58,6.58,0,0,0-2.2992-1.92,5.9787,5.9787,0,0,0-1.4392-.5252,4.0822,4.0822,0,0,0-.5912-.0823L10.607,9.8513V9.6572c.0758-.0476.1526-.0949.2275-.1425A19.7075,19.7075,0,0,0,13.024,7.9318,8.0318,8.0318,0,0,0,14.96,5.685,4.47,4.47,0,0,0,15.366,2.34,3.182,3.182,0,0,0,12.4775.004a2.9268,2.9268,0,0,0-1.9062.6374,3.17,3.17,0,0,0-.6442.682c-.1261.1869-.2348.3085-.3747.5482A6.9838,6.9838,0,0,0,8.5729,4.691a14.93,14.93,0,0,0-.09,2.6809l.0192.4851c-1.1148.6256-2.2954,1.2721-3.4221,2.06a13.33,13.33,0,0,0-2.14,1.797,7.1978,7.1978,0,0,0-1.6265,2.6018,6.1562,6.1562,0,0,0-.2148,3.1766A7.6873,7.6873,0,0,0,2.21,20.29a7.8935,7.8935,0,0,0,4.8869,3.3166,10.2778,10.2778,0,0,0,1.9162.23l.0338,1.1244c.0019.0382.0037.0812.0092.12a3.6745,3.6745,0,0,1,.0246.4085,4.0022,4.0022,0,0,1-.0191.4341,2.2943,2.2943,0,0,1-.18.7267.7658.7658,0,0,1-.3033.3547.8862.8862,0,0,1-.2249.0731,1.39,1.39,0,0,1-.1516.0163l-.0576.0018-.117-.0063-.1306-.0092-.0631-.0155a1.1934,1.1934,0,0,1-.15-.0338,1.4218,1.4218,0,0,1-.3235-.123,1.2056,1.2056,0,0,1-.4551-.3739.6513.6513,0,0,1-.1206-.4223.7584.7584,0,0,1,.0539-.2615,2.1145,2.1145,0,0,1,.1362-.3047l.0648-.1439a.9791.9791,0,0,0-1.7736-.8289,3.7986,3.7986,0,0,0-.2942.6838A2.674,2.674,0,0,0,5.3262,27.65a3.1151,3.1151,0,0,0,1.1934.9793,3.3826,3.3826,0,0,0,.6881.2472,3.5327,3.5327,0,0,0,.721.1075l.1352.0071c.1444.0038.148-.0025.2294-.0034a3.1208,3.1208,0,0,0,.3865-.04,2.7956,2.7956,0,0,0,.795-.2672,2.6688,2.6688,0,0,0,1.13-1.21,4.1313,4.1313,0,0,0,.3591-1.35,6.0879,6.0879,0,0,0,.032-.641c-.0036-.2016-.0091-.37-.0338-.5938l-.03-1.2153a8.1842,8.1842,0,0,0,1.9382-.6482,5.6927,5.6927,0,0,0,1.3149-.8819,4.8937,4.8937,0,0,0,1.0335-1.3122,6.285,6.285,0,0,0,.783-2.9562A5.06,5.06,0,0,0,14.9923,14.8711ZM10.6929,5.0029a4.8542,4.8542,0,0,1,.6762-1.8876c.0676-.1259.2394-.322.3518-.48a.9541.9541,0,0,1,.2248-.2207.64.64,0,0,1,.4377-.1293.8613.8613,0,0,1,.7045.7067,2.1253,2.1253,0,0,1-.28,1.5117,7.5334,7.5334,0,0,1-2.2415,2.1076A11.3274,11.3274,0,0,1,10.6929,5.0029ZM7.7212,21.05A5.2518,5.2518,0,0,1,4.49,18.8321a4.9917,4.9917,0,0,1-.6973-1.8575,3.6621,3.6621,0,0,1,.1124-1.7836,6.7781,6.7781,0,0,1,2.7213-3.0757c.63-.4449,1.2967-.8535,1.9875-1.2638l.0566,1.7263a6.33,6.33,0,0,0-1.802.8426,4.375,4.375,0,0,0-1.1394,1.1422,3.0928,3.0928,0,0,0-.4.8291c-.0247.08-.0557.1778-.0694.2408l-.0265.1548-.0375.2317-.0119.2242a2.8263,2.8263,0,0,0,.54,1.7692A3.5477,3.5477,0,0,0,7.108,19.1248a.93.93,0,0,0,.1088.0447.9844.9844,0,1,0,.6195-1.8687l-.0091-.0014c-1.0709-.3558-1.006-1.55.1426-2.2606a4.2082,4.2082,0,0,1,.7694-.3759l.0082.25.19,6.34A6.8728,6.8728,0,0,1,7.7212,21.05Zm5.9872-3.1924a3.9691,3.9691,0,0,1-.5766,1.832,2.2462,2.2462,0,0,1-.5437.629,3.2226,3.2226,0,0,1-.7877.4834,5.0745,5.0745,0,0,1-.9311.31l-.1545-6.2334-.0091-.44c.0265.0063.0566.0129.08.0209a3.942,3.942,0,0,1,.9083.3718A3.4888,3.4888,0,0,1,13.7084,17.8573Z" transform="translate(-0.983 -0.0019)"/></svg>