<?xml version="1.0" encoding="utf-8"?>
<!-- Generator: Adobe Illustrator 17.0.0, SVG Export Plug-In . SVG Version: 6.00 Build 0)  -->
<!DOCTYPE svg PUBLIC "-//W3C//DTD SVG 1.1//EN" "http://www.w3.org/Graphics/SVG/1.1/DTD/svg11.dtd">
<svg version="1.1" id="Layer_1" xmlns="http://www.w3.org/2000/svg" xmlns:xlink="http://www.w3.org/1999/xlink" x="0px" y="0px"
	 width="89px" height="90px" viewBox="0 0 89 90" enable-background="new 0 0 89 90" xml:space="preserve">
<path fill="#2a2a2a" d="M85.117,1.182c-2.314,0.174-3.177,0.165-4.644,1.104c-0.251-0.869-0.74-1.679-1.729-1.679
	c-2.234,0-0.872,1.503,0.446,2.619c-0.312,0.259-0.604,0.512-0.874,0.765c-0.272-0.782-0.753-1.465-1.667-1.465
	c-2.249,0-0.851,1.512,0.476,2.623c-0.225,0.227-0.461,0.463-0.706,0.708c-0.272-0.77-0.753-1.442-1.658-1.442
	c-2.249,0-0.851,1.512,0.476,2.622c-0.206,0.208-0.417,0.417-0.627,0.625c-0.276-0.736-0.759-1.359-1.629-1.359
	c-2.215,0-0.895,1.465,0.415,2.571c-0.23,0.228-0.455,0.451-0.672,0.668c-0.279-0.733-0.761-1.352-1.631-1.352
	c-2.213,0-0.899,1.461,0.41,2.566c-0.245,0.244-0.468,0.466-0.67,0.668c-0.279-0.731-0.761-1.346-1.627-1.346
	c-2.207,0-0.904,1.456,0.402,2.56l-0.402,0.398v0.787c0,2.394-1.035,3.861-1.356,4.276L36.831,49.292
	c-0.77-0.668-2.846-3.146-2.846-4.605c0-1.386,1.499-3.117,2.492-4.265c1.087-1.257,2.028-2.343,1.533-3.712
	c-0.13-0.362-0.57-1.229-1.826-1.439c-8.747-1.461-11.273,4.892-13.116,9.527c-0.976,2.458-1.896,4.777-3.432,5.93
	c-2.366,1.775-5.215,2.985-7.968,4.154C5.932,57.322,0,59.842,0,67.343C0,77.63,12.756,90,20.768,90c9.176,0,11.621-6.099,13.586-11
	c1.439-3.589,2.681-6.689,5.996-8.015c8.57-3.427,10.099-8.271,9.652-10.592c-0.287-1.492-1.414-2.49-2.802-2.49
	c-1.382,0-2.241,0.606-2.868,1.05c-0.634,0.449-1.184,0.838-2.796,0.838c-0.67,0-1.543-0.104-1.901-0.591
	c-0.398-0.546-0.479-4.143-0.338-4.798l31.544-31.544c0,0,0.564-0.726,0.664-1.301c2.326-0.872,3.588-1.387,7.003-1.428l0.642-0.009
	c2.251-0.036,1.254-1.115,1.997-4.266c0.372-1.58,1.779-6.963,3.989-7.413c1.713-0.088,3.944-1.59,3.855-3.206
	C88.822,2.091,87.464,1.006,85.117,1.182z M41.589,61.804c2.169,0,5.328-1.077,6.191-1.606c0.919,3.597-3.859,7.122-8.13,8.831
	c-4.815,1.928-5.687,5.502-7.225,9.34c-1.931,4.82-5.01,9.692-11.631,9.692c-5.617,0-19.032-12.122-19.032-20.618
	c0-4.769,4.59-8.383,10.573-10.926c2.96-1.257,5.547-2.179,8.283-4.229c2.387-1.79,3.455-4.389,4.582-7.225
	c1.673-4.21,5.402-9.648,10.045-7.401c-1.246,1.514-3.172,4.586-3.172,6.873c0,2.741,2.212,4.791,3.525,5.991l-1.586,1.762
	l3.348,3.348c-0.206,1.242-0.621,2.986,0.529,4.582C38.6,61.207,38.774,61.804,41.589,61.804z M37.761,53.346l-1.106-1.107
	l31.315-31.345L69.076,22L37.761,53.346z M84.947,6.956c-3.695,0.03-4.813,4.76-5.711,8.56c-0.206,0.876-0.495,2.1-0.742,2.779
	c-2.721,0.04-4.735,0.087-6.578,1.207l-1.486-1.484c0.572-1.033,1.165-2.568,1.291-4.614c1.318-1.308,4.214-3.913,6.523-6.23
	c1.41-1.418,3.742-4.024,6.716-4.024c0.002,0,0.002,0,0.002,0c1.023,0,1.888,0.885,1.888,1.931
	C86.85,6.114,86.002,6.956,84.947,6.956z M27.767,56.568l5.664,5.664l-1.26,1.26l-5.664-5.664L27.767,56.568z M22.103,62.232
	l5.664,5.664l-1.26,1.26l-5.664-5.664L22.103,62.232z M22.103,75.449l-1.26,1.26l-7.552-7.552l1.26-1.26L22.103,75.449z
	 M26.904,80.302c0,0.522-0.423,0.944-0.944,0.944c-0.521,0-0.944-0.422-0.944-0.944c0-0.522,0.423-0.944,0.944-0.944
	C26.481,79.358,26.904,79.78,26.904,80.302z M29.736,74.298c0,0.522-0.423,0.944-0.944,0.944c-0.521,0-0.944-0.422-0.944-0.944
	c0-0.522,0.423-0.944,0.944-0.944C29.313,73.354,29.736,73.776,29.736,74.298z"/>
</svg>
