<?xml version="1.0" encoding="utf-8"?>
<!-- Generator: Adobe Illustrator 17.0.0, SVG Export Plug-In . SVG Version: 6.00 Build 0)  -->
<!DOCTYPE svg PUBLIC "-//W3C//DTD SVG 1.1//EN" "http://www.w3.org/Graphics/SVG/1.1/DTD/svg11.dtd">
<svg version="1.1" id="Layer_1" xmlns="http://www.w3.org/2000/svg" xmlns:xlink="http://www.w3.org/1999/xlink" x="0px" y="0px"
	 width="89px" height="88px" viewBox="0 0 89 88" enable-background="new 0 0 89 88" xml:space="preserve">
<path fill="#2a2a2a" d="M33.552,47.578c-4.032,0-7.31,3.276-7.31,7.299c0,4.024,3.279,7.299,7.31,7.299c4.032,0,7.31-3.275,7.31-7.299
	C40.863,50.854,37.584,47.578,33.552,47.578z M33.553,60.35c-3.024,0-5.483-2.452-5.483-5.474c0-3.022,2.459-5.474,5.483-5.474
	c3.024,0,5.483,2.452,5.483,5.474C39.036,57.898,36.577,60.35,33.553,60.35z M16.569,60.885l10.966,10.948l-1.519,1.302
	L15.049,62.188L16.569,60.885z M86.741,10.368c0.74-0.741,1.639-0.869,1.639-2.734c0-4.836-2.597-7.498-7.31-7.498
	c-1.968,0-1.894,0.921-2.696,1.738c-0.086-0.288-0.217-0.564-0.424-0.783c-0.694-0.675-1.919-0.675-2.595,0
	c-0.331,0.347-0.53,0.821-0.53,1.296c0,0.492,0.199,0.949,0.53,1.295c0.3,0.283,0.704,0.447,1.111,0.493
	c-0.42,0.443-0.968,0.943-1.714,1.502C74.679,5.328,74.54,5,74.295,4.741c-0.694-0.675-1.939-0.657-2.595,0
	c-0.331,0.346-0.53,0.803-0.53,1.295c0,0.475,0.199,0.949,0.53,1.295c0.172,0.162,0.375,0.292,0.594,0.383
	c-0.402,0.42-0.823,0.889-1.237,1.422c-0.09-0.274-0.219-0.539-0.419-0.747c-0.676-0.675-1.919-0.675-2.595,0
	c-0.329,0.346-0.528,0.821-0.528,1.296c0,0.492,0.199,0.948,0.53,1.294c0.345,0.329,0.822,0.529,1.297,0.529
	c0.084,0,0.165-0.038,0.247-0.049c-0.346,0.713-1.238,1.223-1.308,1.918c-0.042,0.442,0.108,2.06,0.181,2.407L47.088,37.05
	c-3.151-2.126-8.053-4.07-11.708-4.07c-9.527,0-10.98,6.308-11.762,9.696c-0.154,0.67-0.365,1.589-0.495,1.786
	c-0.689,0.688-3.169,1.143-5.359,1.544c-6.811,1.243-17.108,3.126-17.108,16.133c0,11.954,13.65,25.582,25.623,25.582
	c13.027,0,14.914-10.278,16.16-17.081c0.4-2.185,0.855-4.663,1.504-5.314c0.238-0.166,1.157-0.378,1.827-0.532
	c3.396-0.781,9.714-2.231,9.714-11.743c0-3.65-1.946-8.544-4.075-11.691l21.468-21.642c0.23,0.045,0.846,0.45,1.336,0.327
	c0.7-0.176,0.545-0.256,0.694-0.271c0.695-0.067,1.418-0.321,2.131-0.666c-0.011,0.082-0.049,0.162-0.049,0.247
	c0,0.474,0.199,0.948,0.53,1.295c0.346,0.328,0.823,0.528,1.298,0.528c0.475,0,0.95-0.2,1.298-0.528
	c0.329-0.347,0.53-0.821,0.53-1.295c0-0.475-0.201-0.95-0.53-1.296c-0.208-0.208-0.475-0.33-0.757-0.408
	c0.535-0.416,1.009-0.838,1.429-1.241c0.093,0.219,0.223,0.417,0.388,0.591c0.345,0.329,0.823,0.529,1.298,0.529
	c0.475,0,0.95-0.201,1.298-0.529c0.329-0.347,0.53-0.82,0.53-1.295c0-0.474-0.201-0.949-0.53-1.295
	c-0.26-0.253-0.594-0.376-0.945-0.442c0.568-0.75,1.071-1.29,1.517-1.7c0.049,0.407,0.206,0.789,0.488,1.083
	c0.346,0.329,0.823,0.529,1.298,0.529c0.475,0,0.951-0.2,1.298-0.529c0.329-0.347,0.53-0.821,0.53-1.295
	c0-0.475-0.201-0.95-0.53-1.296C87.231,10.574,86.993,10.449,86.741,10.368z M45.672,62.432c-1.447,0.332-2.555,0.426-3.408,1.278
	c-1.495,1.492-1.325,3.162-1.917,6.39c-1.425,7.988-4.133,16.064-14.073,15.171C15.047,84.262,3.072,73.119,3.072,62.219
	c0-9.967,6.909-12.85,15.123-14.058c3.235-0.592,5.321-0.424,6.816-1.917c0.853-0.852,0.732-1.749,1.065-3.195
	c0.777-3.377,1.796-7.668,9.372-7.668c8.148,0,17.679,9.545,17.679,17.679C53.126,60.52,49.053,61.656,45.672,62.432z
	 M49.749,39.776c-0.346-0.368-0.702-0.722-1.071-1.069l21.427-21.393l1.071,1.069L49.749,39.776z M75.052,17.093L75.052,17.093
	C75.05,17.091,75.052,17.091,75.052,17.093L75.052,17.093z M83.144,8.886c-1.003,0.693-0.532,2.378-3.167,4.834
	c-0.631,0.945-4.596,4.176-5.667,4.122l-3.878-4.086c-0.042-1.031,3.819-4.813,4.766-5.445c2.745-2.158,3.991-1.655,4.649-3.063
	c0.616-0.825,0.411-2.399,1.436-2.529c3.375-0.426,5.359,1.896,4.933,4.913C86.082,8.588,83.874,8.384,83.144,8.886z"/>
</svg>
