<?xml version="1.0" encoding="utf-8"?>
<!-- Generator: Adobe Illustrator 17.0.0, SVG Export Plug-In . SVG Version: 6.00 Build 0)  -->
<!DOCTYPE svg PUBLIC "-//W3C//DTD SVG 1.1//EN" "http://www.w3.org/Graphics/SVG/1.1/DTD/svg11.dtd">
<svg version="1.1" id="Layer_1" xmlns="http://www.w3.org/2000/svg" xmlns:xlink="http://www.w3.org/1999/xlink" x="0px" y="0px"
	 width="79px" height="77px" viewBox="0 0 79 77" enable-background="new 0 0 79 77" xml:space="preserve">
<path fill="#2a2a2a" d="M64.128,26.495H51.127c-6.272,0-11.376-5.105-11.376-11.376c0-8.066-6.562-14.627-14.627-14.627h-9.751
	c-8.064,0-14.627,6.561-14.627,14.627v61.756h3.25v0.125h71.51v-0.125h3.247V41.121C78.755,33.055,72.194,26.495,64.128,26.495z
	 M11.71,75.249H2.78V48.872h6.555v15.001h2.375V75.249z M22.855,75.249h-9.395V63.872h2.375V48.872h4.644v15.001h2.375V75.249z
	 M33.536,75.249h-8.93V63.872h2.375V48.872h6.555V75.249z M44.216,75.249h-8.928V48.872h6.553v15.001h2.375V75.249z M54.896,75.249
	h-8.93V63.872h2.375V48.872h4.18v15.001h2.375V75.249z M65.576,75.249h-8.93V63.872h2.375V48.872h4.18v15.001h2.375V75.249z
	 M76.26,75.249h-8.933V63.872h2.375V48.872h6.558V75.249z M75.88,46.746H3.247V15.118c0-6.272,4.478-11.751,11.376-11.751h9.751
	c8.523,0,12.876,5.48,12.876,11.751c0,8.066,7.436,13.876,13.876,13.876h13.001c7.396,0,12.126,4.98,12.126,12.127L75.88,46.746z"/>
</svg>
