<svg width="39" id="people" data-name="people" xmlns="http://www.w3.org/2000/svg" viewBox="0 0 39 30.0001"><defs><style>.cls-1{fill:#2a2a2a;fill-rule:evenodd;}</style></defs><title>people</title><path class="cls-1" d="M38.4287,30a.5728.5728,0,0,1-.5713-.5743V25.1838a1.2612,1.2612,0,0,0-.6969-1.1336l-1.9082-.959-.6636.6339a2.3927,2.3927,0,0,1-3.3108,0l-.6637-.6339-.8841.4444A3.0375,3.0375,0,0,1,30.4516,25.5v3.9249a.5713.5713,0,1,1-1.1426,0V25.5A1.8824,1.8824,0,0,0,28.1938,23.78l-3.2652-1.45a6.0538,6.0538,0,0,1-10.8561-.0006l-3.2663,1.45A1.8826,1.8826,0,0,0,9.691,25.5v3.9249a.5713.5713,0,1,1-1.1426,0V25.5a3.0351,3.0351,0,0,1,1.2685-2.4682l-.5791-.1666a3.1031,3.1031,0,0,1-.5313-.1926l-1.458,1.4656v5.2867a.5713.5713,0,1,1-1.1426,0V24.1385L4.6582,22.6829a1.3538,1.3538,0,0,1-.2429.0969l-2.3585.6775a1.2719,1.2719,0,0,0-.9143,1.2185v4.7494a.5713.5713,0,1,1-1.1425,0V24.6758a2.4243,2.4243,0,0,1,1.7428-2.3229l2.3586-.6774a.24.24,0,0,0,.1727-.23v-.8294A4.4872,4.4872,0,0,1,2.4424,16.994v-.9378L2.15,15.4681a3.0575,3.0575,0,0,1-.3182-1.3549v-.0344a3.6383,3.6383,0,0,1,3.6244-3.6436H10.842c.05-.6087.1008-1.2483.15-1.9232a9.5321,9.5321,0,0,1,2.63-6.2079A8.1483,8.1483,0,0,1,19.5,0,8.1476,8.1476,0,0,1,25.378,2.3044a9.53,9.53,0,0,1,2.63,6.2076c.1415,1.9266.289,3.58.4306,4.9794a4.8907,4.8907,0,0,1,1.5854-2.0772,2.479,2.479,0,0,1-.104-.7116,3.0292,3.0292,0,0,1,6.0273,0,2.4763,2.4763,0,0,1-.1044.7113,4.8748,4.8748,0,0,1,1.2839,6.3255,4.2436,4.2436,0,0,1-1.79,2.9163v1.1691a.0394.0394,0,0,0,.0217.0353l2.3136,1.1628A2.4048,2.4048,0,0,1,39,25.1838v4.2414A.5729.5729,0,0,1,38.4287,30Zm-6.3638-7.107a1.2546,1.2546,0,0,0,1.7365,0l.5309-.5072a1.194,1.194,0,0,1-.1388-.5608v-.6109a4.2312,4.2312,0,0,1-2.5209,0v.6109a1.1951,1.1951,0,0,1-.1387.5608ZM19.5,24.5539a4.9043,4.9043,0,0,0,4.3815-2.6889l-.8314-.3693a1.8033,1.8033,0,0,1-1.0683-1.6485V18.4693a6.6416,6.6416,0,0,1-4.9635,0v1.3779A1.8032,1.8032,0,0,1,15.95,21.4957l-.8315.3693A4.9162,4.9162,0,0,0,19.5,24.5539ZM6.6773,23.0883,7.973,21.7858a1.5867,1.5867,0,0,1-.0353-.3409v-.23a4.22,4.22,0,0,1-1.2588.1913c-.0438,0-.0875-.0006-.1315-.002a3.9805,3.9805,0,0,1-1.1306-.2007v.2422a1.3874,1.3874,0,0,1-.0412.3346ZM10.38,11.584H5.4561a2.4911,2.4911,0,0,0-2.4818,2.4948v.0344a1.8993,1.8993,0,0,0,.1975.8412l.3528.7093a.5763.5763,0,0,1,.06.2569V16.994a3.2061,3.2061,0,0,0,2.9968,3.2614A3.1,3.1,0,0,0,9.77,17.1482V15.9206a.5763.5763,0,0,1,.06-.2569l.2883-.58a2.5175,2.5175,0,0,0,.2621-1.1159ZM10.3637,20.32a1.1772,1.1772,0,0,1-.4143-.4691,4.2445,4.2445,0,0,1-.869.8033l0,.7913c0,.1279,0,.1807.4715.316l1.8047.5183,1.6-.71A12.6091,12.6091,0,0,1,10.3637,20.32ZM26.868,8.5966a8.4034,8.4034,0,0,0-2.2921-5.4743A7.0326,7.0326,0,0,0,19.5,1.1484a7.0326,7.0326,0,0,0-5.076,1.9739,8.4033,8.4033,0,0,0-2.292,5.4743c-.45,6.1256-.9619,9.5413-1.1612,10.7256a.0286.0286,0,0,0,.0139.0333,12.5894,12.5894,0,0,0,3.5616,1.5077l.9421-.4183a.6538.6538,0,0,0,.3874-.5977V17.8727a6.7217,6.7217,0,0,1-3.0531-5.6354v-.48a1.7871,1.7871,0,0,1,.8981-1.5364,3.4088,3.4088,0,0,0,1.5737-1.8478.5716.5716,0,1,1,1.084.3633,4.5406,4.5406,0,0,1-2.0876,2.48.6258.6258,0,0,0-.3255.5407v.48a5.5348,5.5348,0,1,0,11.0694,0V11.1605a1.25,1.25,0,0,0-.4193-.9447,13.4016,13.4016,0,0,0-7.6147-2.9317.5744.5744,0,0,1,.1137-1.1431,14.5374,14.5374,0,0,1,8.2507,3.2081,2.4,2.4,0,0,1,.8122,1.8114v1.0768a6.7221,6.7221,0,0,1-3.053,5.6354v1.9745a.6537.6537,0,0,0,.3873.5977l.9421.4183a12.5952,12.5952,0,0,0,3.5616-1.5077.0285.0285,0,0,0,.0138-.0333C27.83,18.1379,27.3178,14.7219,26.868,8.5966ZM28.6362,20.32a12.5951,12.5951,0,0,1-2.5928,1.2494l2.612,1.16c.0215.01.0418.0209.0631.0309l1.79-.9a.04.04,0,0,0,.0217-.0356V20.6557A4.24,4.24,0,0,1,29.1423,19.05l.0135.0811A1.1833,1.1833,0,0,1,28.6362,20.32Zm4.297-11.1913a1.7442,1.7442,0,0,0-1.8711,1.5742c0,.0365.0032.0726.0061.1084a4.8164,4.8164,0,0,1,3.73,0c.0029-.0358.0058-.0719.0058-.1084A1.7442,1.7442,0,0,0,32.9332,9.1284Zm3.0448,8.5551a7.7114,7.7114,0,0,0-3.8519-2.2847,2.778,2.778,0,0,1-.6208.9277.5693.5693,0,0,1-.8079,0,.5767.5767,0,0,1,0-.8122,1.4076,1.4076,0,0,0,.4433-.8217.5751.5751,0,0,1,.2134-.4475.5692.5692,0,0,1,.4808-.1133,10.5816,10.5816,0,0,1,4.6134,2.3366,3.7023,3.7023,0,1,0-6.6692.78.578.578,0,0,1,.0811.2388,3.0888,3.0888,0,0,0,6.1178.1964ZM8.5086,15.2672a.5659.5659,0,0,1-.2551-.0608,9.8336,9.8336,0,0,0-3.4083-.5531.5744.5744,0,0,1,0-1.1488,11.0869,11.0869,0,0,1,3.9191.6747.5747.5747,0,0,1-.2559,1.088Zm-5.495,9.9005a.5731.5731,0,0,1,.5713.5746v3.6829a.5713.5713,0,1,1-1.1425,0V25.7423A.5728.5728,0,0,1,3.0136,25.1677Zm10.38,1.228a.5725.5725,0,0,1,.5713.5742v2.4553a.5713.5713,0,1,1-1.1426,0V26.97A.5726.5726,0,0,1,13.3939,26.3957Zm12.212,0a.5726.5726,0,0,1,.5713.5742v2.4553a.5713.5713,0,1,1-1.1426,0V26.97A.5726.5726,0,0,1,25.6059,26.3957Zm10.38-.4691a.5729.5729,0,0,1,.5713.5746v2.924a.5713.5713,0,1,1-1.1426,0v-2.924A.5729.5729,0,0,1,35.9862,25.9266Z" transform="translate(0 0.0004)"/></svg>