<svg width="28" height="28" id="piano" data-name="piano" xmlns="http://www.w3.org/2000/svg" viewBox="0 0 28 27.9999"><defs><style>.cls-1{fill:#2a2a2a;}</style></defs><title>piano</title><path class="cls-1" d="M22.75,9.3332H18.0833A4.0886,4.0886,0,0,1,14,5.25,5.2561,5.2561,0,0,0,8.75,0H5.25A5.2561,5.2561,0,0,0,0,5.25V27.4164H1.1667V28H26.8345v-.5832H28V14.5832A5.2556,5.2556,0,0,0,22.75,9.3332ZM4.6666,26.833H2.3333V17.5h1.75v5.25h.5833Zm3.5,0H5.8333V22.75h.5833V17.5H7.5833v5.25h.5833Zm3.5,0H9.3333V22.75h.5834V17.5h1.75Zm3.5,0H12.8339V17.5h1.7494v5.25h.5833Zm3.5,0H16.3333V22.75h.5833V17.5h1.1667v5.25h.5834Zm3.5,0H19.8333V22.75h.5833V17.5h1.1667v5.25h.5833Zm3.5012,0H23.3333V22.75h.5833V17.5h1.7512Zm1.1655-10.5H1.1667V5.25A4.0882,4.0882,0,0,1,5.25,1.1663h3.5A4.0883,4.0883,0,0,1,12.8333,5.25a5.2557,5.2557,0,0,0,5.25,5.25H22.75a4.0886,4.0886,0,0,1,4.0833,4.0834Z" transform="translate(0 0.0003)"/></svg>