<svg width="70" height="70" id="player" data-name="player" xmlns="http://www.w3.org/2000/svg" viewBox="0 0 69.5115 69.5107"><defs><style>.cls-1{fill:#75b200;fill-rule:evenodd;}</style></defs><title>player</title><path class="cls-1" d="M64.8431,17.3758a34.7487,34.7487,0,1,0-12.719,47.4681A34.7461,34.7461,0,0,0,64.8431,17.3758ZM48.6491,58.8239A27.7984,27.7984,0,1,1,58.8246,20.8508,27.7977,27.7977,0,0,1,48.6491,58.8239ZM47.2612,33.3383,29.0631,22.7258c-1.6577-.968-2.9956-.1943-2.9862,1.7239L26.17,45.5143c.0085,1.9174,1.3625,2.6978,3.0253,1.7375l18.0589-10.425C48.9137,35.8682,48.9172,34.3061,47.2612,33.3383Z" transform="translate(0.0059 0.005)"/></svg>