<svg height="20" id="stars" data-name="stars" xmlns="http://www.w3.org/2000/svg" viewBox="0 0 121.0013 19.999"><defs><style>.cls-1{fill:#ffba00;fill-rule:evenodd;}</style></defs><title>stars</title><path class="cls-1" d="M10.5,0l2.5958,7.2136,7.9048.4255-6.3,4.5189,2.29,7.841L10.5,15.2136,4.01,19.9992l2.29-7.841-6.3-4.5189L7.904,7.2138,10.5,0" transform="translate(0.0007 -0.0002)"/><path class="cls-1" d="M35.5,0l2.5958,7.2136,7.9048.4255-6.3,4.5189,2.29,7.841L35.5,15.2136l-6.49,4.7856,2.29-7.841-6.3-4.5189,7.9047-.4255L35.5,0" transform="translate(0.0007 -0.0002)"/><path class="cls-1" d="M60.5,0l2.5958,7.2136,7.9048.4255-6.3,4.5189,2.29,7.841L60.5,15.2136l-6.49,4.7856,2.29-7.841-6.3-4.5189,7.9047-.4255L60.5,0" transform="translate(0.0007 -0.0002)"/><path class="cls-1" d="M85.5,0l2.5958,7.2136,7.9048.4255-6.3,4.5189,2.29,7.841L85.5,15.2136l-6.49,4.7856,2.29-7.841-6.3-4.5189,7.9047-.4255L85.5,0" transform="translate(0.0007 -0.0002)"/><path class="cls-1" d="M110.5,0l2.5958,7.2136,7.9048.4255-6.3,4.5189,2.29,7.841-6.49-4.7856-6.49,4.7856,2.29-7.841-6.3-4.5189,7.9047-.4255L110.5,0" transform="translate(0.0007 -0.0002)"/></svg>