<?xml version="1.0" encoding="utf-8"?>
<!-- Generator: Adobe Illustrator 17.0.0, SVG Export Plug-In . SVG Version: 6.00 Build 0)  -->
<!DOCTYPE svg PUBLIC "-//W3C//DTD SVG 1.1//EN" "http://www.w3.org/Graphics/SVG/1.1/DTD/svg11.dtd">
<svg version="1.1" id="Layer_1" xmlns="http://www.w3.org/2000/svg" xmlns:xlink="http://www.w3.org/1999/xlink" x="0px" y="0px"
	 width="20px" height="20px" viewBox="0 0 20 20" enable-background="new 0 0 20 20" xml:space="preserve">
<path fill-rule="evenodd" clip-rule="evenodd" fill="#2a2a2a" d="M10,0C4.477,0,0,4.477,0,10c0,5.523,4.477,10,10,10
	c5.523,0,10-4.477,10-10C20,4.477,15.523,0,10,0z M10,18.731c-4.822,0-8.731-3.909-8.731-8.731c0-4.822,3.909-8.731,8.731-8.731
	c4.822,0,8.731,3.909,8.731,8.731C18.731,14.822,14.822,18.731,10,18.731z M10.625,3.789H9.394l0.019,6.856l4.316,3.691l0.762-1.074
	l-3.867-3.242V3.789z"/>
</svg>
