<?xml version="1.0" encoding="utf-8"?>
<!-- Generator: Adobe Illustrator 17.0.0, SVG Export Plug-In . SVG Version: 6.00 Build 0)  -->
<!DOCTYPE svg PUBLIC "-//W3C//DTD SVG 1.1//EN" "http://www.w3.org/Graphics/SVG/1.1/DTD/svg11.dtd">
<svg version="1.1" id="Layer_1" xmlns="http://www.w3.org/2000/svg" xmlns:xlink="http://www.w3.org/1999/xlink" x="0px" y="0px"
	 width="20px" height="20px" viewBox="0 0 20 20" enable-background="new 0 0 20 20" xml:space="preserve">
<path fill-rule="evenodd" clip-rule="evenodd" fill="none" d="M20.667,3.14c-0.595,0.908-1.35,1.706-2.221,2.343L18.46,6.07
	c0,5.99-4.471,12.897-12.646,12.897c-2.511,0-4.846-0.751-6.814-2.036c0.348,0.041,0.702,0.062,1.061,0.062
	c2.082,0,3.999-0.724,5.52-1.939c-1.944-0.038-3.585-1.348-4.151-3.149c0.273,0.052,0.55,0.082,0.837,0.082
	c0.406,0,0.799-0.057,1.171-0.159C1.404,11.41-0.128,9.579-0.128,7.383V7.326c0.6,0.34,1.285,0.544,2.013,0.569
	C0.694,7.084-0.092,5.696-0.092,4.123c0-0.831,0.218-1.61,0.601-2.278c2.192,2.742,5.468,4.547,9.161,4.736
	C9.595,6.25,9.556,5.903,9.556,5.548c0-2.502,1.99-4.532,4.445-4.532c1.279,0,2.433,0.549,3.244,1.432
	c1.013-0.204,1.965-0.581,2.824-1.1c-0.333,1.056-1.037,1.945-1.954,2.506C19.014,3.745,19.869,3.5,20.667,3.14z"/>
</svg>
